<svg xmlns="http://www.w3.org/2000/svg" viewBox="0 0 288.931 288.931"><path d="M274.078 116.659c-8.649-8.649-18.324-10.267-26.745-8.631l.644-3.533c0-3.48 0-8.701-3.48-12.181s-6.96-5.22-12.181-5.22H21.76c-5.22 0-8.701 1.74-12.181 5.22s-3.48 6.96-3.48 12.181L20.02 181.06c6.96 41.763 43.503 73.085 87.006 73.085h40.023c43.346 0 79.732-29.391 86.884-72.633 3.098.748 5.986 1.288 8.822 1.288 13.921 0 26.102-6.96 33.062-19.141 10.442-15.678 8.702-36.559-1.739-47zM147.049 238.467h-40.023c-34.802 0-64.385-24.362-69.605-59.164L25.24 106.218h203.594l-12.181 73.085c-5.22 34.803-34.801 59.164-69.604 59.164zm113.108-85.265c-2.993 6.003-9.901 11.955-22.883 10.163l6.943-38.196c3.828-2.297 9.397-4.612 15.939 1.931 5.221 5.22 5.221 17.401.001 26.102zM77.444 54.015c0 10.441 5.22 17.401 5.22 19.141 1.74 1.74 3.48 3.48 6.96 3.48h5.22c5.22-3.48 5.22-8.701 3.48-12.181 0 0-3.48-5.22-3.48-10.441s3.48-10.441 3.48-10.441 5.22-8.701 5.22-19.141-5.22-17.401-5.22-19.141c-3.48-5.22-8.701-5.22-12.181-3.48-5.22 3.48-5.22 8.701-3.48 12.181 0 0 3.48 5.22 3.48 10.441s-3.48 10.441-3.48 10.441-5.219 8.7-5.219 19.141zM115.727 54.015c0 10.441 5.22 19.141 5.22 19.141 1.74 1.74 3.48 3.48 6.96 3.48h5.22c5.22-3.48 5.22-8.701 3.48-12.181 0 0-3.48-5.22-3.48-10.441s3.48-10.441 3.48-10.441 5.22-8.701 5.22-19.141-5.22-17.401-5.22-19.141c-3.48-5.22-8.701-5.22-12.181-3.48-5.22 3.48-5.22 8.701-3.48 12.181 0 0 3.48 5.22 3.48 10.441s-3.48 10.441-3.48 10.441-5.219 8.7-5.219 19.141zM154.01 54.015c0 10.441 5.22 19.141 5.22 19.141 1.74 1.74 3.48 3.48 6.96 3.48h5.22c5.22-3.48 5.22-8.701 3.48-12.181 0 0-3.48-5.22-3.48-10.441s3.48-10.441 3.48-10.441 5.22-8.701 5.22-19.141-5.22-17.401-5.22-19.141c-3.48-5.22-6.96-6.96-12.181-3.48-5.22 3.48-5.22 8.701-3.48 12.181 0 0 3.48 5.22 3.48 10.441s-3.48 10.441-3.48 10.441-5.219 8.7-5.219 19.141zM241.016 271.53H14.8c-5.22 0-8.701 3.48-8.701 8.701 0 5.22 3.48 8.701 8.701 8.701h226.216c5.22 0 8.701-3.48 8.701-8.701-.001-5.221-3.481-8.701-8.701-8.701z"/></svg>